{"title":"Eleni Karaindrou - Elegy Of The Uprooting (2008) [DVD9 NTSC] {EC","uid":11607076,"size":6743427496,"categoryP":"video","categoryS":"music_videos","magnet":"?xt=urn:btih:44da7e934b9828575eeeae382f50c99041f2e759&amp;dn=Eleni+Karaindrou+-+Elegy+Of+The+Uprooting+%282008%29+%5BDVD9+NTSC%5D+%7BEC&amp;tr=udp%3A%2F%2Ftracker.openbittorrent.com%3A80&amp;tr=udp%3A%2F%2Fopen.demonii.com%3A1337&amp;tr=udp%3A%2F%2Ftracker.coppersurfer.tk%3A6969&amp;tr=udp%3A%2F%2Fexodus.desync.com%3A6969","seeders":0,"leechers":1,"uploader":"user101966","files":15,"time":1417409245,"description":"This torrent is a gift from the Russian Federation and Eastern Block nations whose internal torrent networks are both vast and supporting content of a very high level of quality.\n\nI actually copied the .VOB files in this torrent to a single file (just use copy /b file1+file2+ ... +filen something.mpg) just to get an overall printout of the DVD's makeup as well, I prefer a single file over all those VOB's! [I have never used my DVD drive though it is my right to do so]\n\nHere then, is the resulting mpg file's characteristics:\n-------------------------------------------------------\nGeneral\nComplete name                            : Elegy Of The Uprooting.mpg\nFormat                                   : MPEG-PS\nFile size                                : 6.25 GiB\nDuration                                 : 1h 42mn\nOverall bit rate mode                    : Variable\nOverall bit rate                         : 8 700 Kbps\n\nVideo\nID                                       : 224 (0xE0)\nFormat                                   : MPEG Video\nFormat version                           : Version 2\nFormat profile                           : Main@Main\nFormat settings, BVOP                    : Yes\nFormat settings, Matrix                  : Custom\nFormat settings, GOP                     : M=3, N=15\nDuration                                 : 1h 42mn\nBit rate mode                            : Variable\nBit rate                                 : 6 990 Kbps\nMaximum bit rate                         : 9 800 Kbps\nWidth                                    : 720 pixels\nHeight                                   : 480 pixels\nDisplay aspect ratio                     : 16:9\nFrame rate                               : 29.970 fps\nStandard                                 : NTSC\nColor space                              : YUV\nChroma subsampling                       : 4:2:0\nBit depth                                : 8 bits\nScan type                                : Interlaced\nScan order                               : Bottom Field First\nCompression mode                         : Lossy\nBits/(Pixel*Frame)                       : 0.675\nTime code of first frame                 : 00:01:59:25\nTime code source                         : Group of pictures header\nStream size                              : 5.02 GiB (80%)\n\nAudio\nID                                       : 189 (0xBD)-160 (0xA0)\nFormat                                   : PCM\nFormat settings, Endianness              : Big\nFormat settings, Sign                    : Signed\nMuxing mode                              : DVD-Video\nDuration                                 : 1h 42mn\nBit rate mode                            : Constant\nBit rate                                 : 1 536 Kbps\nChannel(s)                               : 2 channels\nSampling rate                            : 48.0 KHz\nBit depth                                : 16 bits\nStream size                              : 1.10 GiB (18%)\n\n---------------------------\n\nThe torrent is already well seeded so you should have no trouble downloading it straight away.\n\n- user101966","torrent":{"xt":"urn:btih:44da7e934b9828575eeeae382f50c99041f2e759","amp;dn":"Eleni+Karaindrou+-+Elegy+Of+The+Uprooting+%282008%29+%5BDVD9+NTSC%5D+%7BEC","amp;tr":["udp%3A%2F%2Ftracker.openbittorrent.com%3A80","udp%3A%2F%2Fopen.demonii.com%3A1337","udp%3A%2F%2Ftracker.coppersurfer.tk%3A6969","udp%3A%2F%2Fexodus.desync.com%3A6969"],"infoHash":"44da7e934b9828575eeeae382f50c99041f2e759","infoHashBuffer":{"type":"Buffer","data":[68,218,126,147,75,152,40,87,94,238,174,56,47,80,201,144,65,242,231,89]},"announce":[],"urlList":[]}}